<?xml version="1.0" encoding="utf-8"?>
<!-- Generator: Adobe Illustrator 22.0.1, SVG Export Plug-In . SVG Version: 6.00 Build 0)  -->
<svg version="1.1" id="Layer_1" xmlns="http://www.w3.org/2000/svg" xmlns:xlink="http://www.w3.org/1999/xlink" x="0px" y="0px"
	 viewBox="0 0 267 251" style="enable-background:new 0 0 267 251;" xml:space="preserve">
<style type="text/css">
	.st0{fill:none;stroke:#000000;}
</style>
<g>
	<path class="st0" d="M14.5,56.1l1.2,7.8l1.3-7.8l9.6-47.7V8.2h2.1l0,0.1l9.5,47.7l1.2,7.9l1.3-7.9l7.7-47.8h2.1l-9.9,61.9h-2.1V70
		l-10-51.4L27.6,14l-0.8,4.5L16.6,70l0,0.1h-2.1L4.7,8.2h2.1L14.5,56.1z"/>
	<path class="st0" d="M93.8,51.6H67.5l-6,18.5h-2.4L79.3,8.2H82l20.3,61.9h-2.4L93.8,51.6z M68.2,49.3H93L80.6,11.4L68.2,49.3z"/>
	<path class="st0" d="M154.9,10.5h-20.3v59.6h-2.3l0.1-59.6H112V8.2h42.9V10.5z"/>
	<path class="st0" d="M206.5,51.1c-0.3,2.7-1,5.3-2,7.7c-1,2.4-2.3,4.5-4,6.3c-1.7,1.8-3.7,3.2-6,4.3c-2.3,1-4.9,1.6-7.8,1.5
		c-2.4,0-4.5-0.4-6.4-1.2c-1.9-0.8-3.6-1.9-5.1-3.2c-1.5-1.3-2.8-2.9-3.8-4.7c-1.1-1.8-1.9-3.7-2.7-5.7c-0.7-2-1.2-4.1-1.6-6.2
		c-0.3-2.1-0.5-4.2-0.6-6.2v-9.3c0-2,0.2-4.1,0.6-6.2s0.9-4.2,1.6-6.2c0.7-2,1.6-3.9,2.7-5.7c1.1-1.8,2.4-3.3,3.8-4.7
		c1.5-1.3,3.2-2.4,5.1-3.2c1.9-0.8,4-1.2,6.4-1.2c2.9,0,5.5,0.5,7.8,1.5c2.3,1,4.3,2.4,6,4.2c1.7,1.8,3,3.9,4,6.3c1,2.4,1.7,5,2,7.7
		h-2.3c-0.4-2.4-1-4.6-1.9-6.8c-0.9-2.1-2.1-4-3.5-5.6c-1.4-1.6-3.2-2.8-5.2-3.8c-2-0.9-4.3-1.4-6.9-1.3c-2.1,0-4,0.4-5.8,1.1
		c-1.7,0.7-3.2,1.7-4.5,2.9c-1.3,1.2-2.4,2.7-3.4,4.3c-0.9,1.6-1.7,3.4-2.3,5.2c-0.6,1.8-1.1,3.7-1.3,5.6s-0.4,3.8-0.5,5.6v9.3
		c0,1.8,0.2,3.7,0.5,5.6s0.7,3.8,1.3,5.6c0.6,1.8,1.4,3.6,2.3,5.2s2.1,3.1,3.4,4.3c1.3,1.2,2.8,2.2,4.5,3s3.6,1.1,5.8,1.1
		c2.7,0,5-0.4,7-1.3c2-0.9,3.7-2.2,5.2-3.8c1.4-1.6,2.6-3.4,3.5-5.6s1.5-4.4,1.9-6.8H206.5z"/>
	<path class="st0" d="M258.6,70.1h-2.2V39.4h-32.8v30.7h-2.2V8.2h2.2v28.9h32.8V8.2h2.2V70.1z"/>
	<path class="st0" d="M26.1,148.2l0.9,3.2l0.9-3.2l17.7-54.5H48l-19.7,60.4h-2.6L6.1,93.7h2.3L26.1,148.2z"/>
	<path class="st0" d="M63.6,93.7H97V96H81.2v55.9H97v2.2H63.6v-2.2h15.2V96H63.6V93.7z"/>
	<path class="st0" d="M116.1,154.1V93.7h15.2c2.4,0.1,4.5,0.4,6.6,1.2c2,0.7,3.9,1.7,5.5,2.9c1.7,1.2,3.1,2.7,4.4,4.4
		c1.3,1.7,2.4,3.5,3.3,5.4c0.9,1.9,1.6,4,2,6.1c0.5,2.2,0.7,4.3,0.7,6.5v7.4c0,2.2-0.3,4.4-0.7,6.5c-0.5,2.2-1.1,4.2-2,6.1
		c-0.9,1.9-2,3.7-3.3,5.4c-1.3,1.7-2.8,3.1-4.4,4.4c-1.7,1.2-3.5,2.2-5.5,2.9c-2,0.7-4.2,1.1-6.6,1.2H116.1z M118.3,95.9v55.9h13
		c2.2-0.1,4.2-0.4,6-1.1s3.5-1.6,5-2.7s2.8-2.5,4-4c1.2-1.5,2.1-3.2,2.9-5c0.8-1.8,1.4-3.7,1.8-5.6c0.4-2,0.6-3.9,0.7-5.9v-7.5
		c-0.1-3-0.5-5.9-1.5-8.7c-0.9-2.8-2.2-5.4-4-7.7c-1.7-2.3-3.8-4.1-6.4-5.5s-5.4-2.2-8.6-2.2H118.3z"/>
	<path class="st0" d="M200.3,124.1h-28.1v27.7h32v2.2H170V93.7h34.2v2.2h-32v26h28.1V124.1z"/>
	<path class="st0" d="M259,128.4c0,2-0.2,4-0.5,6.1c-0.3,2.1-0.8,4.1-1.5,6.1c-0.7,2-1.5,3.8-2.6,5.6c-1,1.7-2.3,3.3-3.7,4.6
		c-1.4,1.3-3.1,2.4-5,3.1c-1.9,0.8-4,1.1-6.2,1.1c-2.3,0-4.4-0.4-6.2-1.1c-1.9-0.8-3.5-1.8-5-3.1c-1.5-1.3-2.7-2.8-3.8-4.6
		c-1.1-1.7-1.9-3.6-2.6-5.6c-0.7-2-1.2-4-1.5-6.1c-0.3-2.1-0.5-4.1-0.6-6.1v-9c0-2,0.2-4,0.5-6.1c0.3-2.1,0.8-4.1,1.5-6.1
		c0.7-2,1.5-3.8,2.6-5.6c1-1.7,2.3-3.3,3.7-4.6c1.5-1.3,3.1-2.4,5-3.1c1.9-0.8,3.9-1.1,6.3-1.1s4.4,0.4,6.3,1.1s3.5,1.8,5,3.1
		c1.5,1.3,2.7,2.8,3.7,4.6c1,1.7,1.9,3.6,2.6,5.6s1.2,4,1.5,6.1c0.3,2.1,0.5,4.1,0.5,6.1V128.4z M256.8,119.3c0-1.8-0.2-3.6-0.5-5.5
		c-0.3-1.9-0.7-3.7-1.3-5.5c-0.6-1.8-1.3-3.5-2.2-5.1c-0.9-1.6-2-3-3.3-4.2c-1.3-1.2-2.8-2.2-4.4-2.9c-1.7-0.7-3.6-1.1-5.7-1.1
		c-2.1,0-4,0.4-5.6,1.1c-1.7,0.7-3.1,1.7-4.4,2.9c-1.3,1.2-2.4,2.6-3.3,4.2c-0.9,1.6-1.6,3.3-2.2,5.1c-0.6,1.8-1,3.6-1.3,5.5
		c-0.3,1.9-0.4,3.7-0.5,5.4v9.1c0,1.8,0.2,3.6,0.5,5.5c0.3,1.9,0.7,3.7,1.3,5.5c0.6,1.8,1.3,3.5,2.2,5.1c0.9,1.6,2,3,3.3,4.2
		c1.3,1.2,2.8,2.2,4.4,2.9c1.7,0.7,3.6,1.1,5.7,1.1c2.1,0,4-0.4,5.7-1.1s3.1-1.7,4.4-2.9c1.3-1.2,2.4-2.6,3.3-4.2
		c0.9-1.6,1.7-3.3,2.2-5.1c0.6-1.8,1-3.6,1.3-5.5c0.3-1.9,0.4-3.7,0.4-5.5V119.3z"/>
	<path class="st0" d="M48.4,238.1h-2.3v-32.8H11v32.8H8.7V172H11v30.9h35.1V172h2.3V238.1z"/>
	<path class="st0" d="M113.6,205.3H82.9v30.3h35.1v2.5H80.5V172h37.5v2.5H82.9v28.4h30.7V205.3z"/>
	<path class="st0" d="M172.4,209.8H153v28.3h-2.4V172h17.9c2.7,0.1,5.3,0.6,7.7,1.5s4.5,2.2,6.3,3.9c1.8,1.7,3.2,3.7,4.3,6
		c1,2.3,1.6,4.9,1.6,7.7c0,2.3-0.3,4.4-1,6.2c-0.7,1.9-1.6,3.5-2.8,5c-1.2,1.5-2.7,2.8-4.3,3.9c-1.7,1.1-3.5,2.1-5.5,2.9l16.2,28.4
		v0.6h-2.5L172.4,209.8z M153,207.3h17.6c2.2-0.1,4.3-0.5,6.2-1.4c1.9-0.9,3.5-2.1,4.9-3.5c1.4-1.5,2.4-3.2,3.2-5.1
		c0.8-2,1.2-4,1.2-6.2c0-2.5-0.5-4.8-1.4-6.8c-0.9-2-2.2-3.8-3.7-5.2s-3.4-2.6-5.6-3.3c-2.1-0.8-4.4-1.2-6.8-1.3H153V207.3z"/>
	<path class="st0" d="M253.3,205.3h-30.7v30.3h35.1v2.5h-37.5V172h37.5v2.5h-35.1v28.4h30.7V205.3z"/>
</g>
</svg>
