<?xml version="1.0" encoding="utf-8"?>
<!-- Generator: Adobe Illustrator 22.0.1, SVG Export Plug-In . SVG Version: 6.00 Build 0)  -->
<svg version="1.1" id="Layer_1" xmlns="http://www.w3.org/2000/svg" xmlns:xlink="http://www.w3.org/1999/xlink" x="0px" y="0px"
	 viewBox="0 0 293.1 172.7" style="enable-background:new 0 0 293.1 172.7;" xml:space="preserve">
<style type="text/css">
	.st0{fill:none;stroke:#000000;}
</style>
<g>
	<path class="st0" d="M27.7,59.2l1.2,7.8l1.3-7.8l9.6-47.7v-0.1h2.1l0,0.1l9.5,47.7l1.2,7.9l1.3-7.9l7.7-47.8h2.1l-9.9,61.9h-2.1
		v-0.1l-10-51.4l-0.8-4.5l-0.8,4.5L29.8,73.1l0,0.1h-2.1l-9.9-61.9h2.1L27.7,59.2z"/>
	<path class="st0" d="M106.9,54.8H80.6l-6,18.5h-2.4l20.3-61.9h2.6l20.3,61.9H113L106.9,54.8z M81.4,52.5h24.9L93.8,14.5L81.4,52.5z
		"/>
	<path class="st0" d="M168.1,13.7h-20.3v59.6h-2.3l0.1-59.6h-20.4v-2.3h42.9V13.7z"/>
	<path class="st0" d="M219.7,54.3c-0.3,2.7-1,5.3-2,7.7c-1,2.4-2.3,4.5-4,6.3c-1.7,1.8-3.7,3.2-6,4.3c-2.3,1-4.9,1.6-7.8,1.5
		c-2.4,0-4.5-0.4-6.4-1.2c-1.9-0.8-3.6-1.9-5.1-3.2c-1.5-1.3-2.8-2.9-3.8-4.7c-1.1-1.8-1.9-3.7-2.7-5.7c-0.7-2-1.2-4.1-1.6-6.2
		c-0.3-2.1-0.5-4.2-0.6-6.2v-9.3c0-2,0.2-4.1,0.6-6.2s0.9-4.2,1.6-6.2c0.7-2,1.6-3.9,2.7-5.7c1.1-1.8,2.4-3.3,3.8-4.7
		c1.5-1.3,3.2-2.4,5.1-3.2c1.9-0.8,4-1.2,6.4-1.2c2.9,0,5.5,0.5,7.8,1.5c2.3,1,4.3,2.4,6,4.2c1.7,1.8,3,3.9,4,6.3c1,2.4,1.7,5,2,7.7
		h-2.3c-0.4-2.4-1-4.6-1.9-6.8c-0.9-2.1-2.1-4-3.5-5.6c-1.4-1.6-3.2-2.8-5.2-3.8c-2-0.9-4.3-1.4-6.9-1.3c-2.1,0-4,0.4-5.8,1.1
		c-1.7,0.7-3.2,1.7-4.5,2.9c-1.3,1.2-2.4,2.7-3.4,4.3c-0.9,1.6-1.7,3.4-2.3,5.2c-0.6,1.8-1.1,3.7-1.3,5.6s-0.4,3.8-0.5,5.6v9.3
		c0,1.8,0.2,3.7,0.5,5.6s0.7,3.8,1.3,5.6c0.6,1.8,1.4,3.6,2.3,5.2c0.9,1.6,2.1,3.1,3.4,4.3c1.3,1.2,2.8,2.2,4.5,3s3.6,1.1,5.8,1.1
		c2.7,0,5-0.4,7-1.3c2-0.9,3.7-2.2,5.2-3.8c1.4-1.6,2.6-3.4,3.5-5.6s1.5-4.4,1.9-6.8H219.7z"/>
	<path class="st0" d="M271.8,73.2h-2.2V42.6h-32.8v30.7h-2.2V11.4h2.2v28.9h32.8V11.4h2.2V73.2z"/>
	<path class="st0" d="M36.8,151.2l0.9,3.3l0.9-3.3l18.1-55.8h2.4L39,157.2h-2.6L16.3,95.4h2.4L36.8,151.2z"/>
	<path class="st0" d="M75.1,95.4h34.2v2.4H93.1v57.2h16.2v2.3H75.1v-2.3h15.6V97.8H75.1V95.4z"/>
	<path class="st0" d="M128.9,157.2V95.4h15.5c2.4,0.1,4.7,0.5,6.7,1.2c2.1,0.7,4,1.7,5.7,3s3.2,2.7,4.5,4.5c1.3,1.7,2.4,3.6,3.3,5.5
		s1.6,4.1,2.1,6.3s0.7,4.4,0.8,6.7v7.6c0,2.2-0.3,4.5-0.8,6.7s-1.2,4.3-2.1,6.3s-2,3.8-3.3,5.5c-1.3,1.7-2.8,3.2-4.5,4.5
		c-1.7,1.3-3.6,2.3-5.7,3c-2.1,0.7-4.3,1.1-6.7,1.2H128.9z M131.1,97.7v57.3h13.3c2.2-0.1,4.2-0.4,6.1-1.1c1.9-0.7,3.6-1.6,5.1-2.8
		c1.5-1.2,2.9-2.5,4.1-4.1c1.2-1.6,2.2-3.3,3-5.1c0.8-1.8,1.4-3.7,1.8-5.7c0.4-2,0.7-4,0.7-6.1v-7.7c-0.1-3-0.6-6-1.5-8.9
		c-0.9-2.9-2.3-5.5-4.1-7.9s-3.9-4.2-6.5-5.7c-2.6-1.4-5.5-2.2-8.8-2.3H131.1z"/>
	<path class="st0" d="M215,126.6h-28.8v28.4h32.8v2.3h-35V95.4h35v2.3h-32.8v26.6H215V126.6z"/>
	<path class="st0" d="M275.1,130.9c0,2-0.2,4.1-0.6,6.2c-0.3,2.1-0.8,4.2-1.5,6.2s-1.6,3.9-2.6,5.7c-1.1,1.8-2.3,3.3-3.8,4.7
		c-1.5,1.3-3.2,2.4-5.1,3.2c-1.9,0.8-4,1.2-6.4,1.2s-4.5-0.4-6.4-1.2c-1.9-0.8-3.6-1.8-5.1-3.2c-1.5-1.3-2.8-2.9-3.8-4.7
		c-1.1-1.8-2-3.7-2.7-5.7c-0.7-2-1.2-4.1-1.6-6.2c-0.4-2.1-0.5-4.2-0.6-6.2v-9.3c0-2,0.2-4.1,0.6-6.2c0.3-2.1,0.9-4.2,1.6-6.2
		c0.7-2,1.6-3.9,2.6-5.7c1.1-1.8,2.3-3.3,3.8-4.7c1.5-1.3,3.2-2.4,5.1-3.2c1.9-0.8,4-1.2,6.4-1.2s4.5,0.4,6.4,1.2
		c1.9,0.8,3.6,1.8,5.1,3.2c1.5,1.3,2.8,2.9,3.8,4.7c1.1,1.8,1.9,3.7,2.6,5.7c0.7,2,1.2,4.1,1.6,6.2c0.3,2.1,0.5,4.2,0.6,6.2V130.9z
		 M272.9,121.6c0-1.8-0.2-3.7-0.5-5.6s-0.7-3.8-1.3-5.6c-0.6-1.8-1.4-3.6-2.3-5.2c-0.9-1.6-2.1-3.1-3.4-4.3
		c-1.3-1.2-2.8-2.2-4.5-2.9c-1.7-0.7-3.6-1.1-5.8-1.1s-4.1,0.4-5.8,1.1c-1.7,0.7-3.2,1.7-4.5,2.9c-1.3,1.2-2.4,2.7-3.4,4.3
		c-0.9,1.6-1.7,3.4-2.3,5.2c-0.6,1.8-1,3.7-1.3,5.6s-0.4,3.8-0.5,5.6v9.3c0,1.8,0.2,3.7,0.5,5.6s0.7,3.8,1.3,5.6
		c0.6,1.8,1.4,3.6,2.3,5.2c0.9,1.6,2.1,3.1,3.4,4.3c1.3,1.2,2.8,2.2,4.5,3c1.7,0.7,3.6,1.1,5.8,1.1s4.1-0.4,5.8-1.1
		c1.7-0.7,3.2-1.7,4.5-3c1.3-1.2,2.4-2.7,3.4-4.3s1.7-3.4,2.3-5.2s1-3.7,1.3-5.6c0.3-1.9,0.4-3.8,0.4-5.6V121.6z"/>
</g>
</svg>
