<?xml version="1.0" encoding="utf-8"?>
<!-- Generator: Adobe Illustrator 22.0.1, SVG Export Plug-In . SVG Version: 6.00 Build 0)  -->
<svg version="1.1" id="Layer_1" xmlns="http://www.w3.org/2000/svg" xmlns:xlink="http://www.w3.org/1999/xlink" x="0px" y="0px"
	 viewBox="0 0 152.4 141.4" style="enable-background:new 0 0 152.4 141.4;" xml:space="preserve">
<style type="text/css">
	.st0{fill:#FFFFFF;stroke:#000000;stroke-miterlimit:10;}
</style>
<path class="st0" d="M28.5,27.4c0,0,89,19,93,104"/>
<polyline class="st0" points="26.5,38.4 14.5,25.4 28.5,16.4 "/>
<g>
	<path d="M58,16.3c0,0.4-0.1,0.7-0.3,1s-0.3,0.5-0.6,0.7s-0.5,0.3-0.8,0.4s-0.6,0.1-1,0.1c-0.4,0-0.8-0.1-1.2-0.3s-0.6-0.4-0.9-0.7
		s-0.4-0.6-0.5-1s-0.2-0.8-0.2-1.2v-0.8c0-0.4,0.1-0.8,0.2-1.2s0.3-0.7,0.5-1s0.5-0.5,0.9-0.7s0.7-0.3,1.2-0.3c0.4,0,0.7,0.1,1,0.2
		s0.6,0.2,0.8,0.4s0.4,0.4,0.6,0.7s0.2,0.6,0.3,1h-0.7c-0.1-0.5-0.3-1-0.6-1.2s-0.8-0.4-1.3-0.4c-0.4,0-0.7,0.1-0.9,0.2
		s-0.5,0.3-0.7,0.6s-0.3,0.5-0.4,0.8s-0.1,0.6-0.1,0.9v0.8c0,0.3,0,0.6,0.1,0.9s0.2,0.6,0.4,0.8s0.4,0.4,0.6,0.6s0.6,0.2,0.9,0.2
		c0.6,0,1-0.1,1.4-0.4s0.6-0.7,0.6-1.2H58z"/>
	<path d="M64.8,18.5h-0.7v-3.1h-3.5v3.1H60v-6.8h0.7v3.2h3.5v-3.2h0.7V18.5z"/>
	<path d="M71.3,16.6H68l-0.7,1.8h-0.7l2.8-6.8H70l2.7,6.8H72L71.3,16.6z M68.2,16h2.8l-1.4-3.6L68.2,16z"/>
	<path d="M79.9,12.2h-2.7v6.2h-0.7v-6.2h-2.7v-0.6h6V12.2z"/>
	<path d="M89.7,16.8l0.1,0.5l0.1-0.4l1.2-5.2h0.6l1.2,5.2l0.1,0.4l0.1-0.5l1-5.1h0.7l-1.4,6.8h-0.6L91.4,13l0-0.1l0,0.1L90,18.5
		h-0.6L88,11.6h0.7L89.7,16.8z"/>
	<path d="M96.3,11.6h4.6v0.6h-2v5.6h2v0.6h-4.6v-0.6h1.9v-5.6h-1.9V11.6z"/>
	<path d="M108.7,12.2h-2.7v6.2h-0.7v-6.2h-2.7v-0.6h6V12.2z"/>
	<path d="M115.3,18.5h-0.7v-3.1h-3.5v3.1h-0.7v-6.8h0.7v3.2h3.5v-3.2h0.7V18.5z"/>
	<path d="M129.9,11.6v4.6c0,0.4-0.1,0.7-0.2,1s-0.3,0.5-0.5,0.7s-0.5,0.4-0.8,0.5s-0.6,0.2-1,0.2c-0.4,0-0.7-0.1-1-0.2
		s-0.6-0.3-0.8-0.5s-0.4-0.4-0.5-0.7s-0.2-0.6-0.2-1v-4.6h0.7l0,4.6c0,0.3,0.1,0.5,0.1,0.7s0.2,0.4,0.4,0.5s0.3,0.3,0.6,0.3
		s0.5,0.1,0.7,0.1c0.3,0,0.5,0,0.7-0.1s0.4-0.2,0.6-0.3s0.3-0.3,0.4-0.5s0.1-0.5,0.1-0.7l0-4.6H129.9z"/>
	<path d="M136.5,16.8c0-0.2,0-0.3-0.1-0.4s-0.1-0.2-0.2-0.3s-0.2-0.2-0.4-0.2s-0.3-0.1-0.4-0.2s-0.3-0.1-0.4-0.1s-0.3-0.1-0.4-0.1
		c-0.2,0-0.4-0.1-0.5-0.1s-0.4-0.1-0.6-0.2s-0.4-0.2-0.5-0.3s-0.3-0.2-0.4-0.4s-0.2-0.3-0.3-0.5s-0.1-0.4-0.1-0.6s0-0.4,0.1-0.6
		s0.2-0.3,0.3-0.5s0.3-0.2,0.4-0.3s0.3-0.2,0.5-0.2s0.4-0.1,0.6-0.1s0.4,0,0.6,0c0.3,0,0.6,0,0.9,0.1s0.6,0.2,0.8,0.4
		s0.4,0.4,0.6,0.6s0.2,0.6,0.3,0.9h-0.7c0-0.3-0.1-0.5-0.2-0.7s-0.3-0.3-0.4-0.5s-0.4-0.2-0.6-0.3s-0.4-0.1-0.7-0.1
		c-0.2,0-0.4,0-0.6,0.1s-0.4,0.1-0.6,0.2s-0.3,0.2-0.5,0.4s-0.2,0.3-0.2,0.6c0,0.2,0,0.3,0.1,0.4s0.2,0.2,0.3,0.3s0.2,0.2,0.4,0.2
		s0.3,0.1,0.4,0.2s0.3,0.1,0.4,0.1s0.3,0.1,0.4,0.1c0.2,0,0.4,0.1,0.6,0.2s0.4,0.1,0.6,0.2s0.4,0.2,0.5,0.3s0.3,0.2,0.4,0.4
		s0.2,0.3,0.3,0.5s0.1,0.4,0.1,0.6c0,0.3-0.1,0.6-0.2,0.8s-0.4,0.4-0.6,0.6s-0.5,0.2-0.8,0.3s-0.6,0.1-0.9,0.1c-0.3,0-0.7,0-1-0.1
		s-0.6-0.2-0.9-0.4s-0.5-0.4-0.7-0.6s-0.3-0.6-0.3-0.9h0.7c0,0.3,0.1,0.5,0.2,0.7s0.3,0.3,0.5,0.5s0.4,0.2,0.7,0.2s0.5,0.1,0.7,0.1
		c0.2,0,0.4,0,0.6-0.1s0.4-0.1,0.6-0.2s0.3-0.2,0.5-0.4S136.5,17,136.5,16.8z"/>
</g>
</svg>
