<?xml version="1.0" encoding="utf-8"?>
<!-- Generator: Adobe Illustrator 22.0.1, SVG Export Plug-In . SVG Version: 6.00 Build 0)  -->
<svg version="1.1" id="Layer_1" xmlns="http://www.w3.org/2000/svg" xmlns:xlink="http://www.w3.org/1999/xlink" x="0px" y="0px"
	 viewBox="0 0 246 50" style="enable-background:new 0 0 246 50;" xml:space="preserve">
<style type="text/css">
	.st0{fill:#FFFFFF;}
</style>
<g>
	<rect x="11" y="2.5" width="218" height="45"/>
</g>
<g>
	<path class="st0" d="M20.5,34V16.9h5.1c1.1,0,2.1,0.2,3,0.6s1.7,0.9,2.4,1.6s1.2,1.5,1.6,2.4s0.6,1.9,0.6,3v1.9
		c0,1.1-0.2,2.1-0.6,3s-0.9,1.7-1.6,2.4s-1.5,1.2-2.4,1.6s-1.9,0.6-3,0.6H20.5z M21.3,17.7v15.5h4.3c1,0,1.9-0.2,2.7-0.5
		s1.6-0.8,2.2-1.4s1.1-1.3,1.5-2.1s0.5-1.7,0.6-2.7v-2c0-1-0.2-1.9-0.6-2.7s-0.8-1.5-1.5-2.1s-1.3-1.1-2.2-1.4s-1.7-0.5-2.7-0.5
		H21.3z"/>
	<path class="st0" d="M53.1,26.6c0,0.7-0.1,1.3-0.2,1.9s-0.3,1.2-0.6,1.8s-0.5,1.1-0.9,1.6s-0.8,0.9-1.3,1.2s-1,0.6-1.6,0.8
		s-1.2,0.3-2,0.3s-1.4-0.1-2-0.3s-1.1-0.5-1.6-0.8s-0.9-0.7-1.3-1.2s-0.7-1-0.9-1.6s-0.4-1.2-0.6-1.8S40,27.3,40,26.6v-2.3
		c0-1,0.2-1.9,0.4-2.8s0.7-1.7,1.2-2.4s1.2-1.3,2-1.7s1.8-0.6,2.8-0.6c1.1,0,2,0.2,2.8,0.6s1.5,1,2,1.7s1,1.5,1.3,2.4
		s0.4,1.9,0.4,2.8V26.6z M52.3,24.3c0-0.9-0.1-1.7-0.4-2.5s-0.6-1.5-1.1-2.2s-1.1-1.1-1.8-1.5s-1.6-0.6-2.5-0.6s-1.8,0.2-2.5,0.6
		s-1.3,0.9-1.8,1.5s-0.8,1.4-1.1,2.2s-0.4,1.7-0.4,2.5v2.4c0,0.9,0.1,1.7,0.4,2.5s0.6,1.5,1.1,2.2s1.1,1.1,1.8,1.5s1.6,0.6,2.5,0.6
		s1.8-0.2,2.5-0.6s1.3-0.9,1.8-1.5s0.8-1.4,1.1-2.2s0.4-1.7,0.4-2.5V24.3z"/>
	<path class="st0" d="M72.5,34h-0.7l-9.8-15.7L62,34h-0.7V16.9h0.7l9.9,15.7l0-15.7h0.7V34z"/>
	<path class="st0" d="M91.5,29h-8.9l-2,5h-0.9l6.8-17.1h0.9L94.3,34h-0.8L91.5,29z M82.9,28.2h8.3l-3.8-9.6L87,17.7l-0.3,1
		L82.9,28.2z"/>
	<path class="st0" d="M115.3,17.7h-7V34h-0.8V17.7h-7.1v-0.8h14.9V17.7z"/>
	<path class="st0" d="M133.2,25.5h-9.9v7.7h11.3V34h-12.1V16.9h12.1v0.8h-11.2v7h9.9V25.5z"/>
	<path class="st0" d="M174.7,34H174l-9.8-15.7l0,15.7h-0.7V16.9h0.7l9.9,15.7l0-15.7h0.7V34z"/>
	<path class="st0" d="M196.2,26.6c0,0.7-0.1,1.3-0.2,1.9s-0.3,1.2-0.6,1.8s-0.5,1.1-0.9,1.6c-0.4,0.5-0.8,0.9-1.3,1.2
		c-0.5,0.3-1,0.6-1.6,0.8s-1.2,0.3-2,0.3s-1.4-0.1-2-0.3c-0.6-0.2-1.1-0.5-1.6-0.8c-0.5-0.3-0.9-0.7-1.3-1.2c-0.4-0.5-0.7-1-0.9-1.6
		s-0.4-1.2-0.6-1.8c-0.1-0.6-0.2-1.3-0.2-1.9v-2.3c0-1,0.2-1.9,0.4-2.8c0.3-0.9,0.7-1.7,1.2-2.4s1.2-1.3,2-1.7s1.8-0.6,2.8-0.6
		c1.1,0,2,0.2,2.8,0.6s1.5,1,2,1.7s1,1.5,1.3,2.4s0.4,1.9,0.4,2.8V26.6z M195.4,24.3c0-0.9-0.1-1.7-0.4-2.5s-0.6-1.5-1.1-2.2
		s-1.1-1.1-1.8-1.5c-0.7-0.4-1.6-0.6-2.5-0.6s-1.8,0.2-2.5,0.6c-0.7,0.4-1.3,0.9-1.8,1.5c-0.5,0.6-0.8,1.4-1.1,2.2s-0.4,1.7-0.4,2.5
		v2.4c0,0.9,0.1,1.7,0.4,2.5s0.6,1.5,1.1,2.2c0.5,0.6,1.1,1.1,1.8,1.5c0.7,0.4,1.6,0.6,2.5,0.6s1.8-0.2,2.5-0.6s1.3-0.9,1.8-1.5
		s0.8-1.4,1.1-2.2c0.2-0.8,0.4-1.7,0.4-2.5V24.3z"/>
	<path class="st0" d="M205.3,29.9l0.5,2.5l0.5-2.5l3.3-13h0.7l3.3,13l0.5,2.5l0.5-2.6l2.9-12.9h0.8L214.7,34h-0.8l-3.5-13.9
		l-0.4-1.6l-0.4,1.6L206.2,34h-0.8l-3.8-17.1h0.8L205.3,29.9z"/>
</g>
</svg>
