
<svg id="Layer_1" xmlns="http://www.w3.org/2000/svg" viewBox="0 0 246 50">
  <style>
    .st0{fill:#fff}
  </style>
  <path class='test123' d="M11 2.5h218v45H11z"/>
  <path class="st0" d="M20.5 34V16.9h5.1c1.1 0 2.1.2 3 .6s1.7.9 2.4 1.6 1.2 1.5 1.6 2.4.6 1.9.6 3v1.9c0 1.1-.2 2.1-.6 3s-.9 1.7-1.6 2.4-1.5 1.2-2.4 1.6-1.9.6-3 .6h-5.1zm.8-16.3v15.5h4.3c1 0 1.9-.2 2.7-.5s1.6-.8 2.2-1.4 1.1-1.3 1.5-2.1.5-1.7.6-2.7v-2c0-1-.2-1.9-.6-2.7s-.8-1.5-1.5-2.1-1.3-1.1-2.2-1.4-1.7-.5-2.7-.5h-4.3zM53.1 26.6c0 .7-.1 1.3-.2 1.9s-.3 1.2-.6 1.8-.5 1.1-.9 1.6-.8.9-1.3 1.2-1 .6-1.6.8-1.2.3-2 .3-1.4-.1-2-.3-1.1-.5-1.6-.8-.9-.7-1.3-1.2-.7-1-.9-1.6l-.6-1.8c-.2-.6-.1-1.2-.1-1.9v-2.3c0-1 .2-1.9.4-2.8s.7-1.7 1.2-2.4 1.2-1.3 2-1.7 1.8-.6 2.8-.6c1.1 0 2 .2 2.8.6s1.5 1 2 1.7 1 1.5 1.3 2.4.4 1.9.4 2.8v2.3zm-.8-2.3c0-.9-.1-1.7-.4-2.5s-.6-1.5-1.1-2.2-1.1-1.1-1.8-1.5-1.6-.6-2.5-.6-1.8.2-2.5.6-1.3.9-1.8 1.5-.8 1.4-1.1 2.2-.4 1.7-.4 2.5v2.4c0 .9.1 1.7.4 2.5s.6 1.5 1.1 2.2 1.1 1.1 1.8 1.5 1.6.6 2.5.6 1.8-.2 2.5-.6 1.3-.9 1.8-1.5.8-1.4 1.1-2.2.4-1.7.4-2.5v-2.4zM72.5 34h-.7L62 18.3V34h-.7V16.9h.7l9.9 15.7V16.9h.7V34zM91.5 29h-8.9l-2 5h-.9l6.8-17.1h.9L94.3 34h-.8l-2-5zm-8.6-.8h8.3l-3.8-9.6-.4-.9-.3 1-3.8 9.5zM115.3 17.7h-7V34h-.8V17.7h-7.1v-.8h14.9v.8zM133.2 25.5h-9.9v7.7h11.3v.8h-12.1V16.9h12.1v.8h-11.2v7h9.9v.8zM174.7 34h-.7l-9.8-15.7V34h-.7V16.9h.7l9.9 15.7V16.9h.7V34zM196.2 26.6c0 .7-.1 1.3-.2 1.9s-.3 1.2-.6 1.8-.5 1.1-.9 1.6-.8.9-1.3 1.2c-.5.3-1 .6-1.6.8s-1.2.3-2 .3-1.4-.1-2-.3c-.6-.2-1.1-.5-1.6-.8-.5-.3-.9-.7-1.3-1.2s-.7-1-.9-1.6l-.6-1.8c-.1-.6-.2-1.3-.2-1.9v-2.3c0-1 .2-1.9.4-2.8.3-.9.7-1.7 1.2-2.4s1.2-1.3 2-1.7 1.8-.6 2.8-.6c1.1 0 2 .2 2.8.6s1.5 1 2 1.7 1 1.5 1.3 2.4.4 1.9.4 2.8v2.3zm-.8-2.3c0-.9-.1-1.7-.4-2.5s-.6-1.5-1.1-2.2-1.1-1.1-1.8-1.5c-.7-.4-1.6-.6-2.5-.6s-1.8.2-2.5.6c-.7.4-1.3.9-1.8 1.5s-.8 1.4-1.1 2.2-.4 1.7-.4 2.5v2.4c0 .9.1 1.7.4 2.5s.6 1.5 1.1 2.2c.5.6 1.1 1.1 1.8 1.5.7.4 1.6.6 2.5.6s1.8-.2 2.5-.6 1.3-.9 1.8-1.5.8-1.4 1.1-2.2c.2-.8.4-1.7.4-2.5v-2.4zM205.3 29.9l.5 2.5.5-2.5 3.3-13h.7l3.3 13 .5 2.5.5-2.6 2.9-12.9h.8L214.7 34h-.8l-3.5-13.9-.4-1.6-.4 1.6-3.4 13.9h-.8l-3.8-17.1h.8l2.9 13z"/>
</svg>
