<?xml version="1.0" encoding="utf-8"?>
<!-- Generator: Adobe Illustrator 22.0.1, SVG Export Plug-In . SVG Version: 6.00 Build 0)  -->
<svg version="1.1" id="Layer_1" xmlns="http://www.w3.org/2000/svg" xmlns:xlink="http://www.w3.org/1999/xlink" x="0px" y="0px"
	 viewBox="0 0 96.1 83.6" style="enable-background:new 0 0 96.1 83.6;" xml:space="preserve">
<style type="text/css">
	.st0{fill:#222222;}
</style>
<g id="layer1" transform="translate(0,-540.3622)">
	<path id="path3766-1" class="st0" d="M22.2,556.1c-0.7,0-1.4,0.3-1.9,0.8l-7.8,7.8c-0.5,0.5-0.8,1.2-0.8,1.9c0,0.7,0.3,1.4,0.8,1.9
		l16.2,16.2l-16.2,16.2c-0.5,0.5-0.8,1.3-0.8,2c0,0.7,0.3,1.4,0.8,1.9l7.8,7.8c0.5,0.5,1.2,0.8,1.9,0.8c0.7,0,1.4-0.3,1.9-0.8
		l25.9-25.9c0.5-0.5,0.8-1.2,0.8-1.9s-0.3-1.4-0.8-1.9L24.1,557C23.6,556.4,22.9,556.1,22.2,556.1z M50.5,556.1
		c-0.7,0-1.4,0.3-1.9,0.8l-7.8,7.8c-0.5,0.5-0.8,1.2-0.8,1.9c0,0.7,0.3,1.4,0.8,1.9L57,584.8l-16.2,16.2c-0.5,0.5-0.8,1.3-0.8,2
		c0,0.7,0.3,1.4,0.8,1.9l7.8,7.8c0.5,0.5,1.2,0.8,1.9,0.8c0.7,0,1.4-0.3,1.9-0.8l25.9-25.9c0.5-0.5,0.8-1.2,0.8-1.9
		s-0.3-1.4-0.8-1.9L52.5,557C51.9,556.4,51.2,556.1,50.5,556.1z"/>
</g>
</svg>
