<?xml version="1.0" encoding="utf-8"?>
<!-- Generator: Adobe Illustrator 22.0.1, SVG Export Plug-In . SVG Version: 6.00 Build 0)  -->
<svg version="1.1" id="Layer_1" xmlns="http://www.w3.org/2000/svg" xmlns:xlink="http://www.w3.org/1999/xlink" x="0px" y="0px"
	 viewBox="0 0 96.1 83.6" style="enable-background:new 0 0 96.1 83.6;" xml:space="preserve">
<style type="text/css">
	.st0{fill:#222222;}
</style>
<g id="layer1" transform="translate(0,-540.3622)">
	<path id="path3766-1" class="st0" d="M68.7,613.5c0.7,0,1.4-0.3,1.9-0.8l7.8-7.8c0.5-0.5,0.8-1.2,0.8-1.9s-0.3-1.4-0.8-1.9
		l-16.2-16.2l16.2-16.2c0.5-0.5,0.8-1.3,0.8-2c0-0.7-0.3-1.4-0.8-1.9l-7.8-7.8c-0.5-0.5-1.2-0.8-1.9-0.8c-0.7,0-1.4,0.3-1.9,0.8
		l-25.9,25.9c-0.5,0.5-0.8,1.2-0.8,1.9s0.3,1.4,0.8,1.9l25.9,25.9C67.2,613.2,67.9,613.5,68.7,613.5z M40.4,613.5
		c0.7,0,1.4-0.3,1.9-0.8l7.8-7.8c0.5-0.5,0.8-1.2,0.8-1.9s-0.3-1.4-0.8-1.9l-16.2-16.2l16.2-16.2c0.5-0.5,0.8-1.3,0.8-2
		c0-0.7-0.3-1.4-0.8-1.9l-7.8-7.8c-0.5-0.5-1.2-0.8-1.9-0.8s-1.4,0.3-1.9,0.8l-25.9,25.9c-0.5,0.5-0.8,1.2-0.8,1.9s0.3,1.4,0.8,1.9
		l25.9,25.9C38.9,613.2,39.6,613.5,40.4,613.5z"/>
</g>
</svg>
