<?xml version="1.0" encoding="utf-8"?>
<!-- Generator: Adobe Illustrator 22.0.1, SVG Export Plug-In . SVG Version: 6.00 Build 0)  -->
<svg version="1.1" id="Layer_1" xmlns="http://www.w3.org/2000/svg" xmlns:xlink="http://www.w3.org/1999/xlink" x="0px" y="0px"
	 viewBox="0 0 166 167.8" style="enable-background:new 0 0 166 167.8;" xml:space="preserve">
<style type="text/css">
	.st0{fill:#282828;}
	.st1{fill:#FFFFFF;}
	.st2{font-family:'Roboto-Light';}
	.st3{font-size:27px;}
	.st4{fill:none;stroke:#FFFFFF;stroke-width:2;stroke-linecap:round;stroke-miterlimit:10;}
	.st5{fill:none;stroke:#FFFFFF;stroke-linecap:round;stroke-miterlimit:10;}
	.st6{fill:none;stroke:#FFFFFF;stroke-width:4;stroke-miterlimit:10;}
	.st7{fill:none;stroke:#FFFFFF;stroke-width:4;stroke-linecap:round;stroke-miterlimit:10;}
</style>
<circle class="st0" cx="82" cy="84.5" r="81.5"/>
<text transform="matrix(1.1 0 0 1 35.5 54.103)" class="st1 st2 st3">HONEY</text>
<g>
	<path class="st4" d="M75,88c0,0-0.9-9.2,7-11.1c0,0,11.2-3.4,11.5,10.4"/>
	<path class="st5" d="M82.6,75.6c0,0-2.3-9.2-9.2-8.1"/>
	<path class="st5" d="M83.7,75.6c0,0,3.5-10.4,10.4-8.1"/>
	<path class="st4" d="M82.2,86.1L58.3,96.4c0,0-9.2,9.2-1.2,17.3s18.4-3.5,18.4-3.5l6.8-23.9C82.5,86.2,82.4,86.1,82.2,86.1z"/>
	<path class="st4" d="M85.1,86.1l8.2,24.6c0,0,0,0,0,0.1c0.5,0.6,8.7,9.7,17.1,2.6c8.4-7.1-1.3-18-1.9-18.6c0,0,0,0-0.1,0l-23.1-8.7
		C85.2,85.8,85,85.9,85.1,86.1z"/>
	<path class="st4" d="M70.5,115.4c0,0,0,13.8,11.5,15s13.8-12.7,13.8-16.1"/>
	<line class="st6" x1="70.5" y1="115.3" x2="95.8" y2="115.3"/>
	<path class="st4" d="M73.8,112.7"/>
	<line class="st6" x1="76.8" y1="106.1" x2="91.6" y2="106.1"/>
	<line class="st6" x1="72.2" y1="123.4" x2="93.5" y2="123.4"/>
	<line class="st7" x1="83.1" y1="131.5" x2="83.1" y2="135"/>
</g>
</svg>
