<?xml version="1.0" encoding="utf-8"?>
<!-- Generator: Adobe Illustrator 22.0.1, SVG Export Plug-In . SVG Version: 6.00 Build 0)  -->
<svg version="1.1" id="Layer_1" xmlns="http://www.w3.org/2000/svg" xmlns:xlink="http://www.w3.org/1999/xlink" x="0px" y="0px"
	 viewBox="0 0 512 512" style="enable-background:new 0 0 512 512;" xml:space="preserve">
<g>
	<path d="M215.4,460.5c6.8,6.5,17.5,6.5,24.3,0C304.4,397.9,390,283.6,390,192.4C390,102.8,317.1,30,227.6,30
		C142.1,30,70.9,96.7,65.5,181.9C58.9,280.9,156.6,403.6,215.4,460.5z M136.7,192.4c0-50.1,40.8-90.9,90.9-90.9
		c50.1,0,90.9,40.8,90.9,90.9c0,50.1-40.8,90.9-90.9,90.9C177.4,283.3,136.7,242.5,136.7,192.4z"/>
</g>
</svg>
