<?xml version="1.0" encoding="utf-8"?>
<!-- Generator: Adobe Illustrator 22.0.1, SVG Export Plug-In . SVG Version: 6.00 Build 0)  -->
<svg version="1.1" id="Layer_1" xmlns="http://www.w3.org/2000/svg" xmlns:xlink="http://www.w3.org/1999/xlink" x="0px" y="0px"
	 viewBox="0 0 165.8 168.5" style="enable-background:new 0 0 165.8 168.5;" xml:space="preserve">
<style type="text/css">
	.st0{fill:#282828;}
	.st1{fill:#FFFFFF;}
	.st2{font-family:'Roboto-Light';}
	.st3{font-size:27px;}
	.st4{fill:none;stroke:#FFFFFF;stroke-width:2;stroke-miterlimit:10;}
	.st5{fill:none;stroke:#FFFFFF;stroke-width:2;stroke-linecap:round;stroke-miterlimit:10;}
</style>
<circle class="st0" cx="84" cy="85" r="80"/>
<text transform="matrix(1.1 0 0 1 51 55.103)" class="st1 st2 st3">MILK</text>
<g>
	<path class="st4" d="M74.5,74.3v-5.1c0-0.7,0.5-1.2,1.2-1.2h20.8c0.7,0,1.2,0.5,1.2,1.2v5.1H74.5z"/>
	<path class="st4" d="M97.6,74.3l-8.1,14.2c-0.2,0.4-0.3,0.8-0.3,1.2V129h15.9c0.5,0,0.9-0.4,0.9-0.9V89.7c0-0.4-0.1-0.8-0.3-1.2
		L97.6,74.3z"/>
	<path class="st4" d="M89.8,129H65.4c-0.5,0-0.9-0.4-0.9-0.9v-38c0-0.4,0.1-0.8,0.3-1.1l10-14.8"/>
	<line class="st5" x1="64.5" y1="89.6" x2="78.2" y2="89.6"/>
</g>
</svg>
