<?xml version="1.0" encoding="utf-8"?>
<!-- Generator: Adobe Illustrator 22.0.1, SVG Export Plug-In . SVG Version: 6.00 Build 0)  -->
<svg version="1.1" id="Layer_1" xmlns="http://www.w3.org/2000/svg" xmlns:xlink="http://www.w3.org/1999/xlink" x="0px" y="0px"
	 viewBox="0 0 165.8 168.5" style="enable-background:new 0 0 165.8 168.5;" xml:space="preserve">
<style type="text/css">
	.st0{fill:#282828;}
	.st1{fill:#FFFFFF;}
	.st2{font-family:'Roboto-Light';}
	.st3{font-size:21.5434px;}
	.st4{fill:none;stroke:#FFFFFF;stroke-width:2;stroke-miterlimit:10;}
	.st5{fill:none;stroke:#FFFFFF;stroke-width:2;stroke-linecap:round;stroke-miterlimit:10;}
</style>
<circle class="st0" cx="84" cy="85" r="80"/>
<text transform="matrix(1.1 0 0 1 26 55.5815)" class="st1 st2 st3">POTATOES</text>
<g>
	<path class="st4" d="M94.7,83.3c-2.1-1.2-4-2.6-5.6-4.4C84.2,73.7,74,63,62,70c-13.4,7.8-12.4,19.9,5,45c18,26,42,7,45,1s4-13-2-21
		C105.5,89,99.2,85.8,94.7,83.3z"/>
	<line class="st5" x1="61" y1="89" x2="64" y2="86"/>
	<path class="st4" d="M75,93"/>
	<path class="st4" d="M78,89"/>
	<line class="st5" x1="78" y1="90" x2="75" y2="93"/>
	<path class="st4" d="M67,100"/>
	<line class="st5" x1="70" y1="98" x2="67" y2="101"/>
	<line class="st5" x1="68" y1="109" x2="72" y2="105"/>
	<path class="st4" d="M84,105"/>
	<line class="st5" x1="87" y1="102" x2="84" y2="105"/>
	<line class="st5" x1="83" y1="119" x2="86.5" y2="115.5"/>
	<line class="st5" x1="100" y1="106" x2="103.5" y2="102.5"/>
	<line class="st5" x1="98" y1="118" x2="100.5" y2="115.5"/>
</g>
</svg>
