<?xml version="1.0" encoding="utf-8"?>
<!-- Generator: Adobe Illustrator 22.0.1, SVG Export Plug-In . SVG Version: 6.00 Build 0)  -->
<svg version="1.1" id="Layer_1" xmlns="http://www.w3.org/2000/svg" xmlns:xlink="http://www.w3.org/1999/xlink" x="0px" y="0px"
	 viewBox="0 0 165.8 168.5" style="enable-background:new 0 0 165.8 168.5;" xml:space="preserve">
<style type="text/css">
	.st0{fill:#282828;}
	.st1{fill:#FFFFFF;}
	.st2{font-family:'Roboto-Light';}
	.st3{font-size:16.3528px;}
	.st4{fill:#FFFFFF;stroke:#FFFFFF;stroke-miterlimit:10;}
	.st5{fill:none;stroke:#FFFFFF;stroke-width:2;stroke-miterlimit:10;}
</style>
<circle class="st0" cx="83.5" cy="85.5" r="81.5"/>
<text transform="matrix(1.1 0 0 1 24.7241 54.9893)" class="st1 st2 st3">SUNFLOWERS</text>
<g>
	<circle class="st4" cx="84.1" cy="99.9" r="11.2"/>
	<path class="st5" d="M81.8,90.1C78,76,84.1,69,84.1,69s6.1,2.1,2.7,21.1"/>
	<path class="st5" d="M87.7,89.9C92.1,76.1,101,73.4,101,73.4s4,5.1-9.1,19.2"/>
	<path class="st5" d="M92,93.7c11.5-10.5,21.1-8.8,21.1-8.8s0.9,6.4-18.6,13.2"/>
	<path class="st5" d="M93.2,99.3c15.1-3.9,22.7,2.1,22.7,2.1s-2.2,6.1-22.7,2.9"/>
	<path class="st5" d="M92.7,105.6c14.4,6,16.9,15.4,16.9,15.4s-5.4,3.5-19.9-11.3"/>
	<path class="st5" d="M87.8,108.3c6.8,14,2.3,22.7,2.3,22.7s-6.4-1-7.3-21.7"/>
	<path class="st5" d="M76.5,92.6c-10.7-9.9-9.3-19.1-9.3-19.1s6.3-1.5,13.5,16.4"/>
	<path class="st5" d="M73.6,102c-14.2,3.3-21-3-21-3s2.3-6,21.2-2"/>
	<path class="st5" d="M73.6,97c-13.9-4.2-16.7-13-16.7-13s5-4.1,19.4,8.8"/>
	<path class="st5" d="M82,110c-1.8,14.4-10.1,18.6-10.1,18.6s-4.8-4.2,5.4-20.5"/>
	<path class="st5" d="M77.2,107.4c-10,12.3-19.8,12.1-19.8,12.1s-1.8-6.3,16.8-16.1"/>
</g>
</svg>
