<?xml version="1.0" encoding="utf-8"?>
<!-- Generator: Adobe Illustrator 22.0.1, SVG Export Plug-In . SVG Version: 6.00 Build 0)  -->
<svg version="1.1" id="Layer_1" xmlns="http://www.w3.org/2000/svg" xmlns:xlink="http://www.w3.org/1999/xlink" x="0px" y="0px"
	 viewBox="0 0 300 180.5" style="enable-background:new 0 0 300 180.5;" xml:space="preserve">
<style type="text/css">
	.st0{fill:none;stroke:#000000;stroke-miterlimit:10;}
	.st1{fill:none;stroke:#000000;stroke-width:2;stroke-miterlimit:10;}
	.st2{fill:none;stroke:#000000;stroke-width:3;stroke-miterlimit:10;}
	.st3{fill:none;stroke:#000000;stroke-width:4;stroke-miterlimit:10;}
	.st4{fill:none;stroke:#000000;stroke-width:4;stroke-linecap:round;stroke-miterlimit:10;}
	.st5{fill:none;stroke:#000000;stroke-width:3;stroke-linecap:round;stroke-miterlimit:10;}
	.st6{fill:none;stroke:#000000;stroke-width:6;stroke-miterlimit:10;}
</style>
<polyline class="st0" points="190.5,44.5 190.5,5.5 198.5,5.5 198.5,44.5 "/>
<path class="st1" d="M187.5,44.5h15V103c0,3.2-1.7,6.2-4.5,7.6c-1.8,0.9-4,1.2-6.4-0.2c-2.6-1.5-4.1-4.4-4.1-7.3V44.5z"/>
<path class="st2" d="M188,57.5h-44c-0.9,0-1.7,0.5-2.1,1.3l-6.3,11.9c-0.9,1.7,0.3,3.8,2.3,3.8H188"/>
<path class="st2" d="M202.9,57.5h12.9c6.5,0,12.5,3.8,15.3,9.7l2.5,5.4c0.4,0.9-0.2,1.9-1.2,1.9h-29.5"/>
<circle class="st1" cx="233.5" cy="146" r="16.5"/>
<circle class="st0" cx="233.5" cy="146.5" r="4"/>
<circle class="st3" cx="234" cy="146" r="28.5"/>
<line class="st2" x1="233.5" y1="74.2" x2="233.5" y2="117.5"/>
<line class="st1" x1="213" y1="74.8" x2="213" y2="126.6"/>
<line class="st0" x1="233.5" y1="84" x2="221.5" y2="84"/>
<line class="st0" x1="234" y1="91.5" x2="222" y2="91.5"/>
<line class="st0" x1="234" y1="99.5" x2="222" y2="99.5"/>
<line class="st0" x1="234" y1="107.5" x2="222" y2="107.5"/>
<path class="st0" d="M172.5,110.5h-15c-2.2,0-4-1.8-4-4v0c0-2.2,1.8-4,4-4h15c2.2,0,4,1.8,4,4v0
	C176.5,108.7,174.7,110.5,172.5,110.5z"/>
<line class="st0" x1="153.5" y1="85.5" x2="176.5" y2="85.5"/>
<line class="st0" x1="154" y1="93.5" x2="177" y2="93.5"/>
<path class="st2" d="M140.6,74.5c0,0,3.9,19-7.1,25"/>
<line class="st1" x1="212.7" y1="119" x2="138.5" y2="119"/>
<line class="st2" x1="212.2" y1="127.2" x2="139.5" y2="127.2"/>
<path class="st4" d="M36.5,90.5c0,0,32-38,74-12c0,0,33,19,27,55"/>
<line class="st5" x1="139" y1="63.6" x2="125.5" y2="54.5"/>
<line class="st5" x1="114.5" y1="66.5" x2="134.5" y2="42.5"/>
<path class="st6" d="M51.5,87.5L43,96c-0.8,0.8-0.8,2.2,0,3l1.4,1.4c0.6,0.6,0.8,1.6,0.4,2.4l-0.7,1.5c-0.4,0.7-1.1,1.2-1.9,1.2h-4
	c-1,0-1.8,0.7-2.1,1.6l-3.2,12.7c-0.2,1,0.2,2,1.1,2.4l3.3,1.7c0.7,0.4,1.2,1.1,1.2,1.9v0.6c0,0.7-0.4,1.4-0.9,1.8l-3.8,2.5
	c-0.8,0.5-1.1,1.5-0.9,2.3l3.1,11c0.3,0.9,1.1,1.5,2,1.5h3.5c0.6,0,1.1,0.2,1.5,0.6l0.8,0.8c0.7,0.7,0.8,1.7,0.4,2.5l-2,3.7
	c-0.4,0.8-0.3,1.8,0.4,2.5l9.1,9.1c0.8,0.8,2,0.8,2.8,0.2l1.5-1.2c0.8-0.7,2-0.6,2.8,0.2l0.6,0.6c0.4,0.4,0.6,0.8,0.6,1.3l0.3,3.3
	c0.1,0.9,0.7,1.6,1.6,1.9l12,3.2c0.9,0.2,1.9-0.1,2.4-1l1.6-2.6c0.4-0.6,1.1-1,1.8-1h1.8c0.6,0,1.3,0.3,1.7,0.8l2.5,3.1
	c0.5,0.7,1.4,0.9,2.2,0.7l11.8-3.1c1.1-0.3,1.7-1.3,1.5-2.4l-0.5-3c-0.1-0.7,0.1-1.4,0.6-1.8l1.1-1.1c0.7-0.7,1.7-0.8,2.6-0.3
	l4.2,2.4c0.8,0.5,1.9,0.3,2.6-0.3l8.5-8.5c0.8-0.8,0.8-2,0.2-2.8l-1.8-2.3c-0.6-0.7-0.6-1.7-0.1-2.5l0.4-0.6
	c0.5-0.7,1.3-1.1,2.1-0.9l2.8,0.5c1,0.2,2.1-0.4,2.4-1.5l3.9-12.5c0.3-1-0.1-2.1-1.1-2.5l-3.2-1.6c-0.7-0.4-1.2-1.1-1.2-1.9v-1.6
	c0-0.7,0.4-1.4,0.9-1.8l3.7-2.5c0.8-0.5,1.1-1.5,0.8-2.4l-4-12.7c-0.3-1-1.3-1.6-2.4-1.5l-3.1,0.5c-0.7,0.1-1.4-0.1-1.8-0.6l0,0
	c-0.7-0.7-0.8-1.8-0.3-2.7l2.1-3.1c0.6-0.8,0.4-2-0.3-2.7l-8.6-8.6c-0.7-0.7-1.8-0.8-2.6-0.3l-2.8,1.7c-0.5,0.3-1.1,0.4-1.6,0.2
	l-1.5-0.4c-0.9-0.2-1.6-1.1-1.6-2.1v-4.7c0-1-0.6-1.8-1.6-2l-12-3.2c-0.9-0.2-1.8,0.1-2.3,0.9l-2.8,4.1c-0.3,0.4-0.6,0.7-1.1,0.8
	L81,83c-0.9,0.3-1.9,0-2.4-0.8l-3.2-4.5c-0.5-0.7-1.5-1.1-2.3-0.8L63,80c-0.9,0.3-1.5,1.1-1.5,2v3.1c0,0.8-0.5,1.5-1.2,1.9l-2,1
	c-0.5,0.3-1.2,0.3-1.7,0.1L53.8,87C53,86.7,52.1,86.9,51.5,87.5z"/>
<circle class="st1" cx="80.5" cy="126.5" r="29"/>
<ellipse transform="matrix(0.9976 -6.858325e-02 6.858325e-02 0.9976 -8.4548 5.8177)" class="st0" cx="80.5" cy="126" rx="7" ry="7.5"/>
<circle cx="81" cy="114" r="2"/>
<circle cx="91" cy="120" r="2"/>
<circle cx="71" cy="120" r="2"/>
<circle cx="71" cy="132" r="2"/>
<circle cx="81" cy="138" r="2"/>
<circle cx="92" cy="132" r="2"/>
<path class="st1" d="M56.5,75.5V48.3c0-2.5,2-4.6,4.5-4.6c5.5,0,14.1,3.6,15.5,25.9"/>
</svg>
