<?xml version="1.0" encoding="utf-8"?>
<!-- Generator: Adobe Illustrator 22.0.1, SVG Export Plug-In . SVG Version: 6.00 Build 0)  -->
<svg version="1.1" id="Layer_1" xmlns="http://www.w3.org/2000/svg" xmlns:xlink="http://www.w3.org/1999/xlink" x="0px" y="0px"
	 viewBox="0 0 102.4 102.9" style="enable-background:new 0 0 102.4 102.9;" xml:space="preserve">
<style type="text/css">
	.st0{fill:#222222;}
</style>
<g id="layer1" transform="translate(0,-540.3622)">
	<path id="path3766-1" class="st0" d="M37.6,632.9c0.7,0.7,1.7,1.1,2.7,1.1h15.4c1,0,2-0.4,2.7-1.1c0.7-0.7,1.1-1.7,1.1-2.7v-32h32
		c1,0,2-0.4,2.8-1.2c0.7-0.7,1.1-1.7,1.1-2.7v-15.4c0-1-0.4-2-1.1-2.7s-1.7-1.1-2.7-1.1H40.3c-1,0-2,0.4-2.7,1.1
		c-0.7,0.7-1.1,1.7-1.1,2.7v51.2C36.4,631.2,36.8,632.2,37.6,632.9z M9.6,604.9c0.7,0.7,1.7,1.1,2.7,1.1h15.4c1,0,2-0.4,2.7-1.1
		c0.7-0.7,1.1-1.7,1.1-2.7v-32h32c1,0,2-0.4,2.8-1.2c0.7-0.7,1.1-1.7,1.1-2.7v-15.4c0-1-0.4-2-1.1-2.7c-0.7-0.7-1.7-1.1-2.7-1.1
		l-51.2,0c-1,0-2,0.4-2.7,1.1c-0.7,0.7-1.1,1.7-1.1,2.7l0,51.2C8.5,603.2,8.9,604.2,9.6,604.9z"/>
</g>
</svg>
