<svg xmlns="http://www.w3.org/2000/svg" viewBox="0 0 160 160"><title>Asset 6normal</title><g id="Layer_2" data-name="Layer 2"><g id="Layer_1-2" data-name="Layer 1"><circle cx="80" cy="80" r="80" style="fill:#282828"/><text transform="translate(47 50.1) scale(1.1 1)" style="font-size:27px;fill:#fff;font-family:Roboto-Light, Roboto;letter-spacing:0.00401146876827261em">MILK</text></g><g id="Layer_2-2" data-name="Layer 2"><path d="M70.47,69.31V64.18A1.18,1.18,0,0,1,71.65,63H92.43a1.18,1.18,0,0,1,1.18,1.18v5.13Z" style="fill:none;stroke:#fff;stroke-miterlimit:10;stroke-width:2px"/><path d="M93.61,69.31,85.5,83.49a2.35,2.35,0,0,0-.31,1.16V124h15.95a.88.88,0,0,0,.88-.88V84.66a2.35,2.35,0,0,0-.31-1.16Z" style="fill:none;stroke:#fff;stroke-miterlimit:10;stroke-width:2px"/><path d="M85.79,124H61.36a.88.88,0,0,1-.88-.88v-38a2,2,0,0,1,.34-1.1l10-14.75" style="fill:none;stroke:#fff;stroke-miterlimit:10;stroke-width:2px"/><line x1="60.48" y1="84.56" x2="74.15" y2="84.56" style="fill:none;stroke:#fff;stroke-linecap:round;stroke-miterlimit:10;stroke-width:2px"/></g></g></svg>