<svg xmlns="http://www.w3.org/2000/svg" viewBox="0 0 163 163"><title>Asset 5normal</title><g id="Layer_2" data-name="Layer 2"><g id="Layer_1-2" data-name="Layer 1"><circle cx="81.5" cy="81.5" r="81.5" transform="translate(-4.11 158.67) rotate(-87.03)" style="fill:#282828"/><text transform="translate(22.73 50.99) scale(1.1 1)" style="font-size:16.352840423583984px;fill:#fff;font-family:Roboto-Light, Roboto;letter-spacing:0.003990262705273517em">SUNF<tspan x="41.5" y="0" style="letter-spacing:-0.027796115715646816em">L</tspan><tspan x="49.66" y="0" style="letter-spacing:0.004017407349527079em">OWERS</tspan></text></g><g id="Layer_2-2" data-name="Layer 2"><circle cx="82.1" cy="95.92" r="11.24" style="fill:#fff;stroke:#fff;stroke-miterlimit:10"/><path d="M79.75,86.08C76,72,82.1,65,82.1,65s6.09,2.11,2.69,21.08" style="fill:none;stroke:#fff;stroke-miterlimit:10;stroke-width:2px"/><path d="M85.71,85.94C90.11,72.07,99,69.42,99,69.42s4,5.05-9.06,19.22" style="fill:none;stroke:#fff;stroke-miterlimit:10;stroke-width:2px"/><path d="M90,89.69c11.5-10.52,21.05-8.79,21.05-8.79s.92,6.43-18.65,13.22" style="fill:none;stroke:#fff;stroke-miterlimit:10;stroke-width:2px"/><path d="M91.19,95.34c15.09-3.92,22.72,2.09,22.72,2.09s-2.2,6.11-22.66,2.95" style="fill:none;stroke:#fff;stroke-miterlimit:10;stroke-width:2px"/><path d="M90.66,101.6c14.4,6,16.86,15.37,16.86,15.37s-5.44,3.55-19.85-11.32" style="fill:none;stroke:#fff;stroke-miterlimit:10;stroke-width:2px"/><path d="M85.76,104.31c6.75,14,2.33,22.7,2.33,22.7s-6.42-1-7.26-21.67" style="fill:none;stroke:#fff;stroke-miterlimit:10;stroke-width:2px"/><path d="M74.51,88.56c-10.67-9.89-9.26-19.08-9.26-19.08S71.52,68,78.77,85.87" style="fill:none;stroke:#fff;stroke-miterlimit:10;stroke-width:2px"/><path d="M71.56,98c-14.17,3.29-21-3-21-3s2.3-6,21.16-2" style="fill:none;stroke:#fff;stroke-miterlimit:10;stroke-width:2px"/><path d="M71.62,93c-13.93-4.17-16.73-13-16.73-13s5-4.08,19.37,8.75" style="fill:none;stroke:#fff;stroke-miterlimit:10;stroke-width:2px"/><path d="M80,106c-1.83,14.43-10.11,18.64-10.11,18.64S65,120.44,75.3,104.14" style="fill:none;stroke:#fff;stroke-miterlimit:10;stroke-width:2px"/><path d="M75.18,103.43c-10,12.29-19.84,12.08-19.84,12.08s-1.83-6.25,16.8-16.1" style="fill:none;stroke:#fff;stroke-miterlimit:10;stroke-width:2px"/></g></g></svg>