<svg xmlns="http://www.w3.org/2000/svg" viewBox="0 0 160 160"><title>Asset 7normal</title><g id="Layer_2" data-name="Layer 2"><g id="Layer_1-2" data-name="Layer 1"><circle cx="80" cy="80" r="80" style="fill:#282828"/><text transform="translate(22 50.58) scale(1.1 1)" style="font-size:21.543359756469727px;fill:#fff;font-family:Roboto-Light, Roboto;letter-spacing:0.003997289927158502em">P<tspan x="13.35" y="0" style="letter-spacing:-0.009189645915013875em">O</tspan><tspan x="27.73" y="0" style="letter-spacing:-0.0345744974111957em">T</tspan><tspan x="39.85" y="0" style="letter-spacing:-0.059011537893721384em">A</tspan><tspan x="52.04" y="0" style="letter-spacing:-0.009642946834588549em">T</tspan><tspan x="64.69" y="0" style="letter-spacing:0.0039560807526517125em">OES</tspan></text></g><g id="Layer_2-2" data-name="Layer 2"><path d="M90.72,78.28a22.78,22.78,0,0,1-5.6-4.39C80.22,68.65,70,58,58,65c-13.44,7.84-12.38,19.9,5,45,18,26,42,7,45,1s4-13-2-21C101.47,84,95.23,80.77,90.72,78.28Z" style="fill:none;stroke:#fff;stroke-miterlimit:10;stroke-width:2px"/><line x1="57" y1="84" x2="60" y2="81" style="fill:none;stroke:#fff;stroke-linecap:round;stroke-miterlimit:10;stroke-width:2px"/><path d="M71,88" style="fill:none;stroke:#fff;stroke-miterlimit:10;stroke-width:2px"/><path d="M74,84" style="fill:none;stroke:#fff;stroke-miterlimit:10;stroke-width:2px"/><line x1="74" y1="85" x2="71" y2="88" style="fill:none;stroke:#fff;stroke-linecap:round;stroke-miterlimit:10;stroke-width:2px"/><path d="M63,95" style="fill:none;stroke:#fff;stroke-miterlimit:10;stroke-width:2px"/><line x1="66" y1="93" x2="63" y2="96" style="fill:none;stroke:#fff;stroke-linecap:round;stroke-miterlimit:10;stroke-width:2px"/><line x1="64" y1="104" x2="68" y2="100" style="fill:none;stroke:#fff;stroke-linecap:round;stroke-miterlimit:10;stroke-width:2px"/><path d="M80,100" style="fill:none;stroke:#fff;stroke-miterlimit:10;stroke-width:2px"/><line x1="83" y1="97" x2="80" y2="100" style="fill:none;stroke:#fff;stroke-linecap:round;stroke-miterlimit:10;stroke-width:2px"/><line x1="79" y1="114" x2="82.5" y2="110.5" style="fill:none;stroke:#fff;stroke-linecap:round;stroke-miterlimit:10;stroke-width:2px"/><line x1="96" y1="101" x2="99.5" y2="97.5" style="fill:none;stroke:#fff;stroke-linecap:round;stroke-miterlimit:10;stroke-width:2px"/><line x1="94" y1="113" x2="96.5" y2="110.5" style="fill:none;stroke:#fff;stroke-linecap:round;stroke-miterlimit:10;stroke-width:2px"/></g></g></svg>