<svg xmlns="http://www.w3.org/2000/svg" viewBox="0 0 163 163"><title>Asset 4normal</title><g id="Layer_2" data-name="Layer 2"><g id="Layer_1-2" data-name="Layer 1"><circle cx="81.5" cy="81.5" r="81.5" style="fill:#282828"/><text transform="translate(35 51.1) scale(1.1 1)" style="font-size:27px;fill:#fff;font-family:Roboto-Light, Roboto;letter-spacing:0.00401146876827261em">HONEY</text></g><g id="Layer_2-2" data-name="Layer 2"><path d="M74.5,85s-.91-9.18,7-11.13c0,0,11.25-3.44,11.47,10.45" style="fill:none;stroke:#fff;stroke-linecap:round;stroke-miterlimit:10;stroke-width:2px"/><path d="M82.06,72.62s-2.31-9.22-9.22-8.07" style="fill:none;stroke:#fff;stroke-linecap:round;stroke-miterlimit:10"/><path d="M83.21,72.62s3.46-10.38,10.38-8.07" style="fill:none;stroke:#fff;stroke-linecap:round;stroke-miterlimit:10"/><path d="M81.75,83.13,57.84,93.37s-9.22,9.22-1.15,17.3,18.45-3.46,18.45-3.46L82,83.32A.16.16,0,0,0,81.75,83.13Z" style="fill:none;stroke:#fff;stroke-linecap:round;stroke-miterlimit:10;stroke-width:2px"/><path d="M84.59,83.08l8.19,24.58,0,.06c.5.58,8.67,9.7,17.12,2.56s-1.26-18-1.88-18.64l-.07,0L84.83,82.85A.19.19,0,0,0,84.59,83.08Z" style="fill:none;stroke:#fff;stroke-linecap:round;stroke-miterlimit:10;stroke-width:2px"/><path d="M70,112.4s0,13.84,11.53,15,13.84-12.68,13.84-16.14" style="fill:none;stroke:#fff;stroke-linecap:round;stroke-miterlimit:10;stroke-width:2px"/><line x1="69.95" y1="112.25" x2="95.32" y2="112.25" style="fill:none;stroke:#fff;stroke-miterlimit:10;stroke-width:4px"/><path d="M73.27,109.66" style="fill:none;stroke:#fff;stroke-linecap:round;stroke-miterlimit:10;stroke-width:2px"/><line x1="76.3" y1="103.13" x2="91.14" y2="103.13" style="fill:none;stroke:#fff;stroke-miterlimit:10;stroke-width:4px"/><line x1="71.69" y1="120.43" x2="93.01" y2="120.43" style="fill:none;stroke:#fff;stroke-miterlimit:10;stroke-width:4px"/><line x1="82.64" y1="128.54" x2="82.64" y2="132" style="fill:none;stroke:#fff;stroke-linecap:round;stroke-miterlimit:10;stroke-width:4px"/></g></g></svg>