<?xml version="1.0" encoding="utf-8"?>
<!-- Generator: Adobe Illustrator 22.0.1, SVG Export Plug-In . SVG Version: 6.00 Build 0)  -->
<svg version="1.1" id="Layer_1" xmlns="http://www.w3.org/2000/svg" xmlns:xlink="http://www.w3.org/1999/xlink" x="0px" y="0px"
	 viewBox="0 0 165.8 168.5" style="enable-background:new 0 0 165.8 168.5;" xml:space="preserve">
<style type="text/css">
	.st0{fill:#282828;}
	.st1{fill:#F7F7F7;}
	.st2{font-family:'Roboto-Light';}
	.st3{font-size:27px;}
	.st4{fill:none;stroke:#FFFFFF;stroke-width:2;stroke-miterlimit:10;}
	.st5{fill:#FFFFFF;stroke:#FFFFFF;stroke-miterlimit:10;}
	.st6{fill:none;stroke:#FFFFFF;stroke-width:2;stroke-linecap:round;stroke-miterlimit:10;}
	.st7{fill:#FFFFFF;}
</style>
<circle class="st0" cx="82.9" cy="84.4" r="81.6"/>
<text transform="matrix(1.1 0 0 1 46.5 53.853)" class="st1 st2 st3">BEEF</text>
<g>
	<path class="st4" d="M50.7,72.2h-8.5c-3.6,1.2,0,3.6,0,3.6l5.1,4.1c0.6,0.5,0.9,1.2,0.9,1.9v9.5c0,1,0.3,1.9,0.8,2.7
		c2.7,4.1,11.7,15.3,22.5,0c0.6-0.8,0.9-1.9,0.9-2.9l0-9.5c0-0.7,0.3-1.3,0.8-1.7l4.6-3.7c0.3-0.3,0.7-0.5,1.1-0.7
		c0.8-0.4,2-1.4,0.1-2.9c-0.4-0.3-0.8-0.5-1.3-0.5l-9,0l-0.6-0.1"/>
	<circle class="st5" cx="55.6" cy="87.9" r="1.8"/>
	<circle class="st5" cx="64" cy="87.9" r="1.8"/>
	<path class="st4" d="M60.4,69.8c-7.3-6.3-9.4-0.2-9.7,1.8c-0.1,0.3,0.1,0.7,0.3,0.9c1.7,1.7,9.3,8.6,16.7,0.8
		c0.3-0.4,0.6-0.9,0.6-1.4c0-2.4-0.8-8.7-9.1-2.2"/>
	<path class="st4" d="M59.2,102.4l2.2,21.2c0.1,1.3,1,2.3,2.2,2.7c1.2,0.3,2.8,0.3,4-0.9c1.9-1.9,2.3-9.1,2.4-12.1
		c0-0.7,0.6-1.2,1.3-1.2h29.2c0.6,0,1.1,0.4,1.4,1l3.9,10.7c0.4,1.2,1.5,2,2.8,2.1c1.9,0.1,4.4-0.4,5.1-4.1c1.1-5.4,0.2-29.7,0-35.2
		c0-0.6,0-1.1,0.1-1.7c0.3-1.9,0.5-7.2-8.6-6.6H77l-3.3,1.4"/>
	<path class="st6" d="M113,80c0,0,8.5,2.4,8.5,15.7"/>
	<g>
		<g>
			<path class="st7" d="M85.5,81.5c0.7-0.2,4.5,3.5,5.7,3.9c1.8,0.7,4.2,1,6.1,0.7c1.9-0.3,3-1,4.2-2.5c0.6-0.8,0.8-1.4,1.5-2.2
				c0.7-0.8,1.2-0.6,1.8-1.6c0.6-1-0.2-2.3-1.3-2.3c-3,0-5.9,0.7-8.8,0.7c-2.8,0-6.2-1.1-9-0.6c-3,0.6-2.7,2.9-0.9,4.8
				c3.2,3.2,7.5,7.9,12.4,7.7c5.7-0.2,6.1-5.6,9.6-9c0.8-0.8,0.5-2.3-0.7-2.5c-2.6-0.6-4.4,0.8-7,1.2c-3.1,0.5-6.5,0.4-9.7,0.3
				c-1.8,0-1.9,2.4-0.4,2.9c3.9,1.4,6,4.9,10.5,4.5c-0.4-0.9-0.7-1.7-1.1-2.6c-0.2,0.1-0.5,0.3-0.7,0.4c0.4,0.9,0.8,1.8,1.2,2.7
				c1.3-0.8,1.5-1,2.4-2.2c1.2-1.5-1.4-3-2.6-1.5c-0.4,0.4-0.9,0.8-1.3,1.2c-1.4,0.9-0.5,3.2,1.2,2.7c1-0.3,1.3-0.4,2-1.2
				c0.8-0.9,0.3-2.7-1.1-2.6c-3.8,0.4-6.4-3.2-9.7-4.4c-0.1,1-0.3,2-0.4,2.9c2.8,0.1,5.7,0.1,8.5-0.1c2-0.1,5.6-1.9,7.4-1.5
				c-0.2-0.8-0.4-1.7-0.7-2.5c-1.1,1.1-2.2,2.2-3.1,3.5c-0.6,0.9-1,2.6-1.6,3.4c-3.7,4.5-9.1-2.9-11.9-4.6c-0.4-0.5-1-0.7-1.6-0.7
				c1,0.1,2,0.2,3,0.3c1.5,0.1,3,0.3,4.5,0.3c3.3,0.1,6.4-0.7,9.6-0.7c-0.4-0.8-0.9-1.5-1.3-2.3c-0.5,0.7-2,1.4-2.6,2.1
				c-1.1,1.2,0.3,1.5-2.1,2.6c-1,0.4-2.6,0.1-3.5,0c-3.8-0.7-5.2-5.3-9.3-4.4C82.9,79.1,83.7,82,85.5,81.5L85.5,81.5z"/>
		</g>
	</g>
	<g>
		<g>
			<path class="st7" d="M75.6,112.7c5.4,0,10.7,0,16.1-0.1c0.7,0,1.2-0.5,1.4-1.1c2.4-5.7-6.7-8.1-10.7-8.8
				c-5.9-0.9-8.7,1.6-9.4,7.4c-0.2,1.4,1.7,1.8,2.6,1.1c3.2-2.6,10.3-2.5,13.8-0.5c0.4-0.9,0.8-1.8,1.2-2.7
				c-3.5-1.2-7.5-3.2-11.2-3.2c-3.7,0-4.4,2.7-7.1,4.6c0.7,0.6,1.5,1.1,2.2,1.7c0.5-1.8,0.9-3.1,2.4-4.3c2.1-1.6,4.1-0.8,6.3,0.4
				c1.7,0.9,3.2-1.7,1.5-2.6c-6.4-3.3-11.2-1.2-13.2,5.7c-0.3,1.2,1.1,2.5,2.2,1.7c2.5-1.8,3.5-4.8,7.2-4c3,0.6,5.9,1.9,8.8,2.9
				c1.6,0.6,2.6-1.9,1.2-2.7c-4.9-2.8-13-2.6-17.4,1c0.9,0.4,1.7,0.7,2.6,1.1c0.3-2.5,0.5-4.1,3.7-4.7c1.2-0.2,2.6,0.3,3.8,0.5
				c1.7,0.4,7.9,1.9,6.7,4.7c0.5-0.4,1-0.7,1.4-1.1c-5.4,0-10.7,0-16.1,0.1C73.7,109.7,73.7,112.7,75.6,112.7L75.6,112.7z"/>
		</g>
	</g>
	<g>
		<g>
			<path class="st7" d="M78.5,110.9c2.9,0,5.8,0,8.7,0c1.9,0,1.9-3,0-3c-2.9,0-5.8,0-8.7,0C76.6,107.9,76.6,110.9,78.5,110.9
				L78.5,110.9z"/>
		</g>
	</g>
	<g>
		<g>
			<path class="st7" d="M92.4,83c-0.4,3.2,3.5,5,6,3.4c2.5-1.5,3.4-5.8-0.2-6.4c-1.5-0.2-3,0-4.4,0.6c-1.2,0.5-2.9,1.6-2.7,3.1
				c0.1,1.6,1.7,1.9,3,2c0.7,0.1,1.5,0,2.2-0.3c0.7-0.3,1-1,1.6-1.4c1.6-1.1,0.1-3.7-1.5-2.6c-0.5,0.3-0.9,1.1-1.4,1.3
				c-0.3,0.2-1.2,0-1.5-0.2c0.2,0.3,0.5,0.6,0.7,0.9c0-0.1,0-0.2-0.1-0.3c-0.1,0.4-0.1,0.8-0.2,1.2c0.6-1.5,3-1.3,4.2-1.2
				c-0.1-0.1-0.2-0.2-0.3-0.4c0,0.2-0.1,0.5-0.3,0.7c-0.2,0.3-0.5,0.6-0.8,0.7c-0.7,0.2-1.2-0.3-1.2-1C95.6,81,92.6,81.1,92.4,83
				L92.4,83z"/>
		</g>
	</g>
</g>
</svg>
